<svg width="68" height="68" viewBox="0 0 68 68" fill="none" xmlns="http://www.w3.org/2000/svg">
<path d="M66.7624 61.9901L44.7326 39.9446L44.691 39.9862C48.4943 34.99 50.2574 28.7356 49.6236 22.4886C48.9897 16.2416 46.0063 10.4687 41.277 6.3383C36.5477 2.20788 30.4259 0.0284177 24.1504 0.241017C17.875 0.453616 11.9147 3.0424 7.47576 7.48342C3.03686 11.9244 0.450943 17.886 0.24135 24.1615C0.0317578 30.4371 2.21415 36.5579 6.34684 41.2852C10.4795 46.0125 16.2538 48.9932 22.5011 49.624C28.7484 50.2549 35.002 48.4887 39.9964 44.6831L39.9615 44.7179L61.9879 66.7601C62.6207 67.3932 63.4791 67.749 64.3743 67.7492C65.2695 67.7494 66.1281 67.394 66.7612 66.7612C67.3944 66.1283 67.7502 65.2699 67.7504 64.3747C67.7506 63.4795 67.3952 62.6209 66.7624 61.9878V61.9901ZM25.0001 43.0001C21.44 43.0001 17.9599 41.9444 14.9998 39.9665C12.0398 37.9886 9.73265 35.1774 8.37028 31.8884C7.0079 28.5993 6.65144 24.9801 7.34597 21.4884C8.04051 17.9968 9.75484 14.7895 12.2722 12.2721C14.7895 9.7548 17.9968 8.04046 21.4885 7.34593C24.9801 6.65139 28.5993 7.00785 31.8884 8.37023C35.1775 9.73261 37.9887 12.0397 39.9666 14.9998C41.9444 17.9599 43.0001 21.44 43.0001 25.0001C42.9995 29.7738 41.1029 34.3518 37.7274 37.7273C34.3518 41.1028 29.7738 42.9995 25.0001 43.0001Z" fill="#10375C"/>
</svg>
